<?xml version="1.0" encoding="utf-8"?>
<!-- Generator: Adobe Illustrator 24.1.2, SVG Export Plug-In . SVG Version: 6.00 Build 0)  -->
<svg version="1.1" id="OBJECTS" xmlns="http://www.w3.org/2000/svg" xmlns:xlink="http://www.w3.org/1999/xlink" x="0px" y="0px"
	 viewBox="0 0 223.5 188.7" style="enable-background:new 0 0 223.5 188.7;" xml:space="preserve">
<style type="text/css">
	.st0{fill-rule:evenodd;clip-rule:evenodd;}
	.st1{fill:#FACC15;}
</style>
<g>
	<path class="st0" d="M197.5,159c5.8-1.2,10-4.4,11.9-10.2c0.5-1.6,0.5-3.3,0.1-4.9c0-0.3-0.1-0.5-0.2-0.8c-0.9-2.6-3.7-3.9-6.2-3
		c-0.7,0.2-1.5,0.5-2.1,0.9c-0.8,0.4-1.6,0.8-2.8,1.5c1-3-0.6-4.2-2.6-5.1c-2.7-1.4-5.6-2.3-8.5-2.7c-6.6-1.1-13.2-1.6-19.9-1.7
		c-4.1-0.1-8.2,0.2-12.2,1c-0.4-1.5-0.8-3-1.1-4.5c0-0.1-0.2-0.1-0.4-0.2c-1.1,0.9-0.9,1.9-0.5,3.1c0.3,0.6,0.5,1.3,0.8,1.9
		c-0.1,0-0.3,0.1-0.4,0.1c-3,0.7-5.7,2.3-7.7,4.8c-1.3,1.5-1.8,3.5-1.4,5.4c0.4,2.1,1,4.2,1.8,6.2c1.3,2.6,2.9,5.1,4.4,7.6
		c0.3,0.5,0.7,1,1,1.5c-1.9,0.5-3.7,1.1-5.5,1.7c-1.3,0.6-2.6,1.4-3.7,2.4c-1.3,1.2-1.2,2.6-0.1,4c0.5,0.7,1.1,1.2,1.9,1.6
		c1.2,0.7,2.5,1.3,3.8,1.8c-0.7,0.3-1.2,0.7-1.7,1.3c-0.3,0.6-0.5,1.2-0.7,1.8c1.9-0.8,3.3-1.4,4.7-2c0.1,0,0.2-0.1,0.3-0.2
		c5.7,1.7,11.6,2.4,17.5,2.8c6,0.4,12,0.4,18,0c5-0.3,9.9-1.1,14.8-2.5c1.9-0.6,3.7-1.4,5.4-2.5c2.1-1.4,2.2-3.5,0.2-5.1
		c-1.4-1.1-2.9-2-4.6-2.7c-2.2-0.9-4.6-1.5-7-2.2l0.5-1C196,159.1,196.7,159.1,197.5,159z M204.5,141.4c1.3,0,2.4,0.8,2.7,2
		c0.5,1.4,0.5,2.9-0.1,4.3c-2,4.9-5.4,8.3-10.7,9.7c-0.2,0-0.5,0-0.7,0v0c0-0.2,0-0.4,0-0.5c0.1-0.4,0.3-0.9,0.4-1.4
		c2-0.1,3.8-0.9,5.3-2.2c2.3-1.8,3.9-4.4,4.4-7.2c0.1-0.5,0.1-1,0-1.5c-0.3-1.7-1.4-2.5-3-2.1c-1.1,0.3-2.2,0.8-3.2,1.3
		c-0.4,0.3-0.8,0.5-1.3,0.7C200,142.6,202.2,141.5,204.5,141.4z M198.2,146c1.8-1.4,3.6-2.8,6-2.7v0c0.9,3.6-3.9,10.4-7.6,10.9
		c0.4-2.5,0.9-5,1.3-7.5C198,146.5,198,146.2,198.2,146z M147,140c1.4-1.2,3.1-2.2,4.9-2.7c0.9-0.3,1.8-0.6,2.8-0.8
		c0.2,0.4,0.3,0.8,0.5,1.2l0.3,0c0.1-0.5,0.1-0.9,0.1-1.4c2.3-0.5,4.7-0.9,7.1-1c5.7-0.3,11.4-0.5,17.1-0.4
		c4.2,0.1,8.3,0.3,12.3,1.8c1.2,0.5,2.3,1,3.5,1.6c0.5,0.3,1,0.6,1.3,1.1c0.7,0.9,0.6,1.4-0.3,2.1c-0.4,0.3-0.8,0.5-1.2,0.7v0
		c-1.6-2.3-4.1-2.9-6.6-3.6c-4.5-1.1-9.2-1.7-13.9-1.6c-6.5-0.2-12.9,0.5-19.2,2c-3,0.6-5.8,1.9-8.2,3.9
		C145.7,141.7,145.7,141.2,147,140z M190.8,140.4c-2.4-0.7-4.8-1.2-7.3-1.5c-8.2-0.9-16.4-0.7-24.5,0.7c-2.9,0.4-5.8,1.2-8.5,2.4
		c-0.9,0.4-1.9,0.9-2.2,1.9c0,0,0,0,0,0c0.3-1.1,1.3-1.5,2.2-1.9c2.7-1.2,5.5-2,8.5-2.4c8.1-1.4,16.3-1.6,24.5-0.7
		C186,139.2,188.4,139.7,190.8,140.4c1.4,0.2,2.6,1.2,3,2.5v0C193.4,141.6,192.2,140.6,190.8,140.4z M195.2,161.4
		c3.5,0.5,6.8,1.7,9.8,3.6c2,1.3,2,2.9,0,4.2c-2.7,1.9-5.8,2.7-9,3.2c-6,1-12.1,1.5-18.2,1.5c-8.8-0.3-17.5-0.7-26-3
		c-1.7-0.4-3.3-1-4.9-1.6c-1.1-0.4-2.1-1-3-1.7c-1.7-1.3-1.7-2.6,0-3.9c0.3-0.3,0.7-0.5,1.1-0.7c2.1-0.8,4.2-1.5,6.3-2.2
		c0.7-0.3,1.4-0.1,1.9,0.5c1.1,1.2,2.4,2.3,3.7,3.4c4.3,3.4,9.6,5.3,15.1,5.4c3.8,0.3,7.6-0.2,11.2-1.4c3.9-1.2,7.3-3.5,9.9-6.7
		C193.5,161.6,194.4,161.2,195.2,161.4z M188.7,162.5c-1.9,1.4-3.9,2.7-6,3.8c-5.1,2.9-10.5,3-16,1.3c-4.9-1.5-9.4-4.3-12.9-8
		c-2.8-2.8-5.1-6-6.8-9.5c-0.8-1.7-1.4-3.4-1.8-5.2c-0.1-0.8-0.2-1.7-0.2-2.5c0.6,0.5,0.8,0.7,1.1,1c1.2,1.3,2.7,2.3,4.4,3
		c3.8,1.5,7.8,2.4,11.9,2.7c8.2,0.7,16.4,0.1,24.4-1.8c3.5-0.8,6.9-2.1,9.9-4.1c0.3-0.1,0.5-0.3,0.8-0.4c-0.6,4-1.1,7.7-2.6,11.4
		C193.7,157.5,191.5,160.4,188.7,162.5z"/>
	<path class="st0" d="M185.5,129c0.1,0.3,0.2,0.5,0.3,1c0.7-0.5,1.1-1.4,1-2.3c-0.2-2-0.4-3.9-0.6-5.9c-0.5-3.9-0.2-7.5,2.6-10.6
		c0.1-0.1,0.1-0.3,0.1-0.5c-1-0.5-1.8,0-2.5,0.6c-1.2,1-2,2.3-2.4,3.8c-0.7,2.5-0.3,4.9,0.3,7.4C184.8,124.6,185.1,126.8,185.5,129z
		"/>
	<path class="st0" d="M163.5,129.3c0,0,0.1,0,0.4,0.2c0.1-0.3,0.2-0.6,0.3-0.9c0.4-2.5,0.3-5-0.5-7.4c-0.8-2.8-0.5-5.8,0.7-8.4
		c0.1-0.4,0.2-0.7,0.3-1.1c-1.1-0.3-1.5,0.4-1.9,1c-1.1,1.9-1.6,4.1-1.2,6.3C162.2,122.4,162.9,125.8,163.5,129.3z"/>
	<path class="st0" d="M174,128.3c0,0.2,0.2,0.4,0.3,0.7c1-1.3,1.4-3,0.9-4.6c-0.4-1.5-0.9-2.9-1.4-4.4c-0.4-1.2-0.4-2.5,0.1-3.7
		c0.2-0.6,0.4-1.1,0.5-1.7c-1.6-0.1-2,0.9-2.4,1.7c-0.7,1.6-0.5,3.5,0.4,5C173.4,123.4,174.4,125.7,174,128.3z"/>
	<path class="st0" d="M191.8,153.9c-2.9,5.3-7.7,8.6-12.6,11.7c5.1-0.8,9.6-3.6,12.5-7.8c0.5-0.8,0.8-1.6,1-2.5
		c0.1-0.4-0.2-0.8-0.4-1.3L191.8,153.9z"/>
	<path class="st0" d="M193.8,149.3c-0.2-0.1-0.7,0.3-0.7,0.5c-0.2,0.8-0.2,1.7-0.3,2.5c1-0.3,1.7-1.2,1.6-2.2
		C194.5,149.8,194.1,149.4,193.8,149.3z"/>
	<path class="st0" d="M188.3,171.1c0,0.2,0.1,0.4,0.1,0.6c2.3-0.3,4.6-0.6,6.9-1.1c1.6-0.4,3.2-0.9,4.7-1.6c1.1-0.4,1.9-1.4,2-2.5
		c-0.3-0.1-0.5-0.1-0.5-0.1c-2.3,2.3-5.3,2.9-8.3,3.5C191.6,170.3,190,170.7,188.3,171.1z"/>
</g>
<g>
	<path d="M20.9,39.9L20.9,39.9c-1.6-4.4-2.7-7.9-3.4-10.5c-0.6-2.5-1-4.7-1-6.4c0-1.3,0.2-2.3,0.6-3c0.4-0.7,0.7-0.7,0.8-0.7
		c1,0,2.1,0.6,3.3,1.8c1.4,1.4,2.5,3.1,3.3,5.2c0.7,1.7,1.3,3,2.7,3c0.6,0,1.4-0.3,1.9-1.6c0.3-0.6,0.4-1.3,0.4-2
		c0-1.2-0.4-2.7-1.1-4.4c-0.7-1.6-1.5-3.1-2.5-4.4c-2.7-3.4-5.7-5.1-9-5.1c-4.6,0-8.5,2.9-11.6,8.6C2.5,26,1.1,33.1,1.1,41.6
		c0,5.6,0.8,11.6,2.3,17.7c1.1,4.6,3.4,11.8,6.8,21.3c2.6,7.5,4.3,12.5,5,15c0.7,2.4,1,4.6,1,6.5c0,3.3-1.1,3.3-1.5,3.3
		c-1.4,0-2.8-0.9-4.4-2.8c-1.7-2.1-3.2-4.9-4.5-8.4c-0.4-1.1-1-2.8-2.5-2.8c-0.5,0-1.5,0.2-2,1.7c-0.2,0.6-0.4,1.4-0.4,2.1
		c0,2.3,1.1,5.3,3.2,9.2c3.1,5.6,6.9,8.5,11.3,8.5c4.6,0,8.6-2.5,11.7-7.4c1.6-2.5,2.8-5.7,3.7-9.5c0.9-3.7,1.3-7.8,1.3-12
		c0-4.9-0.6-10.1-1.8-15.3C29.1,63.7,26,54,20.9,39.9z"/>
	<path d="M65.4,22.9c-1.8-3.1-4.2-5.2-6.9-6.4c-2.7-1.2-6.5-1.7-11.6-1.7H33.6l0.1,19.6l0.1,22.6l-0.1,47.5l0,5.6h18.8l0-16
		c1.4,0.4,2.5,0.6,3.4,0.6c3.6,0,6.7-2,9.3-6c2.4-3.7,4.3-9,5.6-15.7c1.1-5.6,1.6-11.5,1.6-17.6c0-5.7-0.5-11.1-1.4-16.3
		C69.6,32.2,67.8,26.8,65.4,22.9z M60.5,84.8c-1.5,1.7-2.9,2.5-4.4,2.5c-1.5,0-2.8-0.3-3.8-0.8l0-16l0.1-45.2v-3
		c2.9,0.1,5.2,1,7.1,2.7c2.1,1.9,3.8,5,5.2,9.3c2,6.2,3,13.3,3,21c0,8.1-1,15.3-3,21.4l0,0C63.5,80.2,62.1,82.9,60.5,84.8z"/>
	<path d="M106.2,102.2l-13.4,0.4l-0.2-45.1v-4.1c0-2.3,0-4.3,0-6l10.3,0.2l2,0.2l0.1,0c0.8,0,3.2-0.3,3.2-4.2c0-1.3-0.2-2.2-0.6-2.8
		c-0.5-0.7-1.4-1.1-2.7-1.1c0,0,0,0,0,0l-11,0.5l-1.3,0l0.1-18l11.4,0.4h0.2c0.8,0,2.6-0.4,2.6-3.8c0-1.2-0.1-2.8-1.2-3.5
		c-0.5-0.4-1.2-0.5-3-0.5H73.9l0.2,43.5L74,82.4l0,22.6l0,5h1.5l29.4,0c2.2-0.1,2.4-0.1,2.6-0.2c1.8-0.6,1.8-2.9,1.8-3.7
		C109.2,102.5,106.9,102.2,106.2,102.2z"/>
	<path d="M141.5,102.2l-13.5,0.4l-0.2-45.1v-4.1c0-2.3,0-4.3,0-6l10.3,0.2l2,0.2l0.1,0c0.8,0,3.2-0.3,3.2-4.2c0-1.3-0.2-2.2-0.6-2.8
		c-0.5-0.7-1.4-1.1-2.7-1.1c0,0,0,0,0,0l-11,0.5l-1.3,0l0.1-18l11.4,0.4h0.2c0.8,0,2.6-0.4,2.6-3.8c0-1.2-0.1-2.8-1.2-3.5
		c-0.5-0.4-1.2-0.5-3-0.5h-28.9l0.2,43.5l-0.1,24.2l0,22.6l0,5h1.5l29.4,0c2.2-0.1,2.4-0.1,2.6-0.2c1.8-0.6,1.8-2.9,1.8-3.7
		C144.6,102.5,142.3,102.2,141.5,102.2z"/>
	<path d="M168.4,16.2c-2-1-4.9-1.5-8.7-1.5h-15.1l0.2,49.2l-0.1,46.1h14.6c3.1,0,5-0.1,5.9-0.2c1-0.2,2.2-0.6,3.4-1.3
		c4.7-2.6,8.3-8.8,11.1-19c2.2-8.1,3.4-17.2,3.4-27.1c0-9.7-1.1-18.7-3.3-26.8C177,25,173.3,18.7,168.4,16.2z M176.2,83.5
		c-1.7,7.4-4,12.8-6.9,16.1c-1.4,1.6-2.4,2.3-2.9,2.5c-0.4,0.2-1.3,0.4-2.9,0.5l-0.1-27.7l0.2-52.9c5.3,0.3,9.4,6.3,12.3,17.6
		c1.8,6.9,2.7,14.5,2.7,22.8C178.5,69.9,177.7,77,176.2,83.5L176.2,83.5z"/>
	<path d="M219.7,14.9c-0.6-1.3-1.7-1.5-2.1-1.5c-0.6,0-1.6,0.2-2.2,1.8c-0.1,0.4-0.4,1.3-1.2,4.4l-6.8,26.1l-8.8-31h-21.9l0.6,2
		c3.3,10.2,6.1,19.1,8.2,26.3c2.2,7.2,5.9,20.2,11.1,38.5l0.6,2.2l-5.7,20.5c-0.6,1.7-0.8,2.9-0.8,3.8c0,3.1,1.6,3.4,2.3,3.4
		c0.5,0,1.6-0.2,2.2-1.7c0.1-0.4,0.4-1.3,1.5-5l0.9-3.1l21-77.3l0.8-2.9c0.2-0.7,0.4-1.4,0.5-2c0.2-0.9,0.4-1.7,0.4-2.5
		C220.2,16.2,220,15.5,219.7,14.9z"/>
</g>
<g>
	<path class="st1" d="M22.9,38L22.9,38c-1.6-4.4-2.7-7.9-3.4-10.5c-0.6-2.5-1-4.7-1-6.4c0-1.3,0.2-2.3,0.6-3
		c0.4-0.7,0.7-0.7,0.8-0.7c1,0,2.1,0.6,3.3,1.8c1.4,1.4,2.5,3.1,3.3,5.2c0.7,1.7,1.3,3,2.7,3c0.6,0,1.4-0.3,1.9-1.6
		c0.3-0.6,0.4-1.3,0.4-2c0-1.2-0.4-2.7-1.1-4.4c-0.7-1.6-1.5-3.1-2.5-4.4c-2.7-3.4-5.7-5.1-9-5.1c-4.6,0-8.5,2.9-11.6,8.6
		c-2.9,5.5-4.4,12.6-4.4,21.1c0,5.6,0.8,11.6,2.3,17.7c1.1,4.6,3.4,11.8,6.8,21.3c2.6,7.5,4.3,12.5,5,15c0.7,2.4,1,4.6,1,6.5
		c0,3.3-1.1,3.3-1.5,3.3c-1.4,0-2.8-0.9-4.4-2.8c-1.7-2.1-3.2-4.9-4.5-8.4c-0.4-1.1-1-2.8-2.5-2.8c-0.5,0-1.5,0.2-2,1.7
		c-0.2,0.6-0.4,1.4-0.4,2.1c0,2.3,1.1,5.3,3.2,9.2c3.1,5.6,6.9,8.5,11.3,8.5c4.6,0,8.6-2.5,11.7-7.4c1.6-2.5,2.8-5.7,3.7-9.5
		c0.9-3.7,1.3-7.8,1.3-12c0-4.9-0.6-10.1-1.8-15.3C31.1,61.7,28,52.1,22.9,38z"/>
	<path class="st1" d="M67.4,20.9c-1.8-3.1-4.2-5.2-6.9-6.4c-2.7-1.2-6.5-1.7-11.6-1.7H35.6l0.1,19.6l0.1,22.6l-0.1,47.5l0,5.6h18.8
		l0-16c1.4,0.4,2.5,0.6,3.4,0.6c3.6,0,6.7-2,9.3-6c2.4-3.7,4.3-9,5.6-15.7c1.1-5.6,1.6-11.5,1.6-17.6c0-5.7-0.5-11.1-1.4-16.3
		C71.6,30.3,69.8,24.8,67.4,20.9z M62.5,82.8c-1.5,1.7-2.9,2.5-4.4,2.5c-1.5,0-2.8-0.3-3.8-0.8l0-16l0.1-45.2v-3
		c2.9,0.1,5.2,1,7.1,2.7c2.1,1.9,3.8,5,5.2,9.3c2,6.2,3,13.3,3,21c0,8.1-1,15.3-3,21.4l0,0C65.5,78.2,64.1,81,62.5,82.8z"/>
	<path class="st1" d="M108.2,100.3l-13.4,0.4l-0.2-45.1v-4.1c0-2.3,0-4.3,0-6l10.3,0.2l2,0.2l0.1,0c0.8,0,3.2-0.3,3.2-4.2
		c0-1.3-0.2-2.2-0.6-2.8c-0.5-0.7-1.4-1.1-2.7-1.1c0,0,0,0,0,0l-11,0.5l-1.3,0l0.1-18l11.4,0.4h0.2c0.8,0,2.6-0.4,2.6-3.8
		c0-1.2-0.1-2.8-1.2-3.5c-0.5-0.4-1.2-0.5-3-0.5H75.9l0.2,43.5L76,80.5l0,22.6l0,5h1.5l29.4,0c2.2-0.1,2.4-0.1,2.6-0.2
		c1.8-0.6,1.8-2.9,1.8-3.7C111.2,100.6,108.9,100.3,108.2,100.3z"/>
	<path class="st1" d="M143.5,100.3l-13.5,0.4l-0.2-45.1v-4.1c0-2.3,0-4.3,0-6l10.3,0.2l2,0.2l0.1,0c0.8,0,3.2-0.3,3.2-4.2
		c0-1.3-0.2-2.2-0.6-2.8c-0.5-0.7-1.4-1.1-2.7-1.1c0,0,0,0,0,0l-11,0.5l-1.3,0l0.1-18l11.4,0.4h0.2c0.8,0,2.6-0.4,2.6-3.8
		c0-1.2-0.1-2.8-1.2-3.5c-0.5-0.4-1.2-0.5-3-0.5h-28.9l0.2,43.5l-0.1,24.2l0,22.6l0,5h1.5l29.4,0c2.2-0.1,2.4-0.1,2.6-0.2
		c1.8-0.6,1.8-2.9,1.8-3.7C146.6,100.6,144.3,100.3,143.5,100.3z"/>
	<path class="st1" d="M170.4,14.3c-2-1-4.9-1.5-8.7-1.5h-15.1l0.2,49.2l-0.1,46.1h14.6c3.1,0,5-0.1,5.9-0.2c1-0.2,2.2-0.6,3.4-1.3
		c4.7-2.6,8.3-8.8,11.1-19c2.2-8.1,3.4-17.2,3.4-27.1c0-9.7-1.1-18.7-3.3-26.8C179,23.1,175.3,16.7,170.4,14.3z M178.2,81.6
		c-1.7,7.4-4,12.8-6.9,16.1c-1.4,1.6-2.4,2.3-2.9,2.5c-0.4,0.2-1.3,0.4-2.9,0.5L165.3,73l0.2-52.9c5.3,0.3,9.4,6.3,12.3,17.6
		c1.8,6.9,2.7,14.5,2.7,22.8C180.5,68,179.7,75.1,178.2,81.6L178.2,81.6z"/>
	<path class="st1" d="M221.7,13c-0.6-1.3-1.7-1.5-2.1-1.5c-0.6,0-1.6,0.2-2.2,1.8c-0.1,0.4-0.4,1.3-1.2,4.4l-6.8,26.1l-8.8-31h-21.9
		l0.6,2c3.3,10.2,6.1,19.1,8.2,26.3c2.2,7.2,5.9,20.2,11.1,38.5l0.6,2.2l-5.7,20.5c-0.6,1.7-0.8,2.9-0.8,3.8c0,3.1,1.6,3.4,2.3,3.4
		c0.5,0,1.6-0.2,2.2-1.7c0.1-0.4,0.4-1.3,1.5-5l0.9-3.1l21-77.3l0.8-2.9c0.2-0.7,0.4-1.4,0.5-2c0.2-0.9,0.4-1.7,0.4-2.5
		C222.2,14.3,222,13.6,221.7,13z"/>
</g>
<path class="st1" d="M144.9,146.9c-5.9,0.5-11.3,1.6-16.3,3.2c-0.2-0.1-0.5-0.4-1-0.6c-1.1-0.8-2-1.4-2.5-1.8
	c-0.6-0.4-1.1-1-1.6-1.8c-0.5-0.8-0.8-1.6-0.8-2.6c0-1.2,0.4-2.2,1.3-3.1c0.8-0.9,2.1-1.3,3.9-1.3c3.3,0,5,1.1,5.2,3.3v0.1v0.1
	c0,0.1,0,0.1,0,0.2c0,0.1,0.1,0.1,0.1,0.1v0.1l0.1,0.1c0.1,0.1,0.1,0.1,0.2,0.1c0,0.1,0,0.1,0.1,0.1h0.1h0.1h0.1c0,0.1,0,0.1,0.1,0
	h0.1c0.1,0,0.1,0,0.2,0h0.1c0.1-0.1,0.1-0.1,0.2-0.2h0.1V143c0.1,0,0.1,0,0.1-0.1l0.1-0.1v-0.1l0.1-0.1v-0.1
	c0.2-1.9-0.3-3.7-1.5-5.3c-0.9-1.3-2.2-2.3-3.7-3c-1.5-0.7-3.1-1.1-4.7-1.1c-4,0-7,1.3-9.1,3.8c-1.8,2.1-2.7,4.9-2.7,8.4
	c0,0.1,0,0.2,0,0.3s0,0.2,0,0.3c0,0.1,0,0.1,0,0.2v0.2c0.1,0.1,0.1,0.1,0.1,0.2c0.1,0.6,0.2,1.2,0.5,1.8c-0.8,4.1-1.5,7.2-2.2,9.2
	l-0.1,0.1c-0.6,2-1.4,3.7-2.4,5.2c-1,1.5-2,2.2-3,2.2c-0.5,0-0.9,0-1.2-0.1c-0.3-0.1-0.7-0.4-1.2-0.8c-0.5-0.5-1-1.2-1.3-2.1
	c-0.3-0.9-0.6-2.4-0.9-4.3c-0.3-1.9-0.4-4.3-0.4-7.1c0-6.1,0.8-14,2.5-23.6c0.2-1.3,0.3-2.4,0.5-3.1c2.4,0.3,4.4,0.4,6,0.4
	c3.3,0,6.3-0.3,9-0.9c2.7-0.6,5-1.4,6.9-2.3c1.9-1,4-2.2,6.2-3.8c0.5-0.4,0.6-0.8,0.2-1.4c-0.3-0.6-0.8-0.7-1.3-0.4
	c-3.2,2.3-6.4,4-9.5,5c-3.2,1.1-7,1.6-11.6,1.6c-1.5,0-3.4-0.1-5.7-0.4c0.1-0.6,0.2-1.1,0.2-1.5c0-1.9-0.9-3.3-2.8-4.3
	c-1.9-1-3.7-1.4-5.5-1.4c-0.9,0-1.7,1.3-2.3,3.9c-0.2,0.5-0.3,1.1-0.5,1.7c-6.8-1.2-11.6-1.8-14.3-1.8c-4.4,0-7.5,1.5-9.1,4.4
	c-0.4,0.6-0.3,1.1,0.3,1.5c0.1,0.1,0.3,0.1,0.5,0.1c0.4,0,0.7-0.1,0.8-0.4c1.3-2.3,3.8-3.4,7.5-3.4c2.6,0,7.3,0.6,13.9,1.7
	c-0.3,1.3-0.5,2.8-0.8,4.5c-1.1,7.6-1.6,14.7-1.6,21.4c0,1.1,0.1,2.2,0.2,3.3c-0.5,2.6-0.9,4.8-1.4,6.4l-0.1,0.1
	c-0.6,2-1.3,3.7-2.3,5.1c-0.9,1.4-1.9,2.1-3,2.1s-2-1.1-2.9-3.3c-0.9-2.2-1.4-4.8-1.4-7.7c0-3.9,0.3-8,0.9-12.2
	c0.2-1.3,0.3-2.2,0.3-2.7c0-1.6-0.7-2.8-2-3.8c-1.3-1-2.7-1.4-4.2-1.4c-1.5,0-2.7,1.5-3.7,4.6c-1.3-3-3.5-4.6-6.7-4.6
	c-3.9,0-7.1,2.2-9.7,6.6c-2.4,4-3.6,8.5-3.6,13.7c0,0.1,0,0.3,0,0.4c-1.3,4.2-2.7,8.1-4.3,11.5c-1.5,2.8-3.1,5-4.9,6.6
	c-1.8,1.7-4,2.5-6.6,2.5c-2.9,0-5.1-1.1-6.8-3.2c-1.7-2.2-2.5-5.2-2.5-9c0-3,0.8-5.9,2.3-8.8c1.5-2.9,3.3-4.4,5.3-4.7
	c0.3-0.1,0.6-0.2,0.8-0.5c0.6-1.2,1-2.4,1.2-3.6c0.2-1.2,0.1-2.2-0.4-3.1c-0.1-0.2-0.3-0.3-0.7-0.3c-1.3-0.2-2.5-1-3.9-2.5
	c-1.3-1.5-2-3.5-2-6.2c0-3.7,1-6.7,3-9c2-2.3,4.1-3.5,6.3-3.5c1.8,0,3.1,0.7,3.9,2.1c0.6,1,0.9,2.3,0.9,3.8c0,1.5-0.2,2.8-0.7,3.8
	c-0.1,0.2-0.1,0.4,0,0.6c0,0.1,0,0.1,0,0.2c0.1,0.1,0.1,0.1,0.1,0.2c0.1,0,0.1,0,0.1,0.1c0.1,0.1,0.2,0.1,0.4,0.2
	c0,0.1,0,0.1,0.1,0.1h0.1H43c0.1,0,0.2,0,0.3,0c0.1,0,0.1,0,0.1-0.1c0,0,0-0.1,0.1-0.1c0.1,0,0.1,0,0.2-0.1c0-0.1,0-0.1,0.1-0.1
	c0.1-0.1,0.1-0.1,0.1-0.2c0.8-1.6,1.1-3.5,1-6c-0.1-2.8-1.1-5.3-3-7.3c-2.2-2.3-5.1-3.5-8.8-3.5c-3.9,0-7.2,1.8-9.9,5.3
	c-2.7,3.5-4.1,7.7-4.1,12.7c0,1.8,0.4,3.6,1.1,5.3c0.7,1.7,1.7,3.1,2.8,4.3c1.2,1.1,2.5,2.1,3.9,2.8c-2.1,0.9-3.9,2.3-5.6,4.1
	c-3.6,4.1-5.4,9.3-5.4,15.6c0,5.7,1.7,10.2,5.2,13.5c2.9,2.8,6.3,4.3,10.4,4.3c5.6,0,10.7-3.8,15.1-11.4c0.8-1.3,1.5-2.7,2.2-4.1
	v-0.1c1.1-2.4,2.1-4.9,3.1-7.7c0.2,1,0.6,2,1,3c1,2.2,2.5,4,4.4,5.2c1.9,1.2,4.1,1.8,6.7,1.8c3.4,0,6.3-2,8.7-6
	c0.1,0.2,0.2,0.4,0.4,0.6c2.4,3.5,5.5,5.3,9.1,5.3c3.4,0,6.1-2.6,8.1-7.8c0.5-1.3,1-2.9,1.4-4.8c0.5,1.9,1.2,3.7,2,5.4
	c2.4,4.7,5.6,7.1,9.6,7.1c3.9,0,7-2.8,9.2-8.5c0.3-0.7,0.6-1.4,0.8-2.1l0.1-0.1c0.6-1.8,1.2-4.4,1.8-7.6c1.1,1.3,2.6,2.6,4.5,3.7
	c-3.1,2.3-4.6,4.9-4.6,7.8v0.1c0,3.1,1.3,5.4,4,6.8c1.7,0.9,3.5,1.4,5.4,1.4c3.4,0,6-1.1,7.8-3.3c1.8-2.2,2.6-4.6,2.6-7.2
	c0-3.3-1.3-6.1-4-8.3c4.5-1.3,9.3-2.1,14.3-2.6c0.6-0.1,0.9-0.5,0.9-1.2C145.8,147.2,145.5,146.8,144.9,146.9z M65.8,164.2
	c-1.5,0-2.7-0.8-3.5-2.4c-0.8-1.6-1.2-3.9-1.2-6.9c0-4.3,0.7-8,2.1-11.1c1.4-3.1,2.7-4.6,3.9-4.6c1.4,0,2.3,1.2,2.9,3.7
	c-0.4,2.6-0.6,5.3-0.6,8.1c0,3.4,0.6,6.5,1.7,9.4C69.3,162.9,67.5,164.2,65.8,164.2z M125.8,164.6c-1,0.7-2.2,1-3.6,1
	c-1.2,0-2.4-0.3-3.7-0.9c-1.3-0.6-1.9-1.5-1.9-2.6c0-2.4,1.5-4.6,4.6-6.6h0.1c0.8,0.5,1.4,0.9,1.8,1.1c0.4,0.2,0.9,0.6,1.5,1.1
	c0.6,0.5,1,0.8,1.4,1.2c0.3,0.3,0.6,0.7,0.8,1.2c0.2,0.5,0.4,0.9,0.4,1.4C127.3,162.9,126.8,163.9,125.8,164.6z"/>
</svg>
